<svg xmlns="http://www.w3.org/2000/svg" width="70" height="70" viewBox="0 0 70 70" fill="none"><path fill-rule="evenodd" clip-rule="evenodd" d="M26.7969 20.2344H43.2031V25.5664H58.9258V27.207H43.2031V32.5391H26.7969V27.207H11.0742V25.5664H26.7969V20.2344ZM28.4375 21.875H41.5625V30.8984H28.4375V21.875Z" fill="#4670CE"></path><path fill-rule="evenodd" clip-rule="evenodd" d="M14.5824 31.9092C17.4066 33.4043 18.9521 34.3436 19.5613 35.3271C20.1233 36.2353 20.0209 37.4559 19.8349 39.6712L19.8347 39.673L19.8344 39.677C19.802 40.0627 19.7672 40.4758 19.7333 40.9202C19.4578 44.5215 19.6563 48.2394 20.2919 51.3891C21.0849 55.3202 22.5087 58.3685 24.5228 60.4496C24.9262 60.8622 25.4511 61.1349 26.0206 61.2277C26.5901 61.3205 27.1744 61.2287 27.6879 60.9655C28.2014 60.7023 28.6172 60.2817 28.8745 59.7652C29.1318 59.2487 29.217 58.6635 29.1177 58.095C29.0503 57.396 27.8828 44.3063 33.4548 37.5238C33.6538 37.2883 33.902 37.0993 34.182 36.9701C34.462 36.841 34.7669 36.7749 35.0752 36.7764C35.3835 36.778 35.6877 36.8471 35.9664 36.979C36.2451 37.111 36.4914 37.3024 36.6881 37.5399C42.1501 44.3554 41.001 57.3946 40.9343 58.0956C40.8645 58.4788 40.8805 58.8727 40.981 59.249C41.0816 59.6253 41.2642 59.9747 41.5158 60.272C41.7674 60.5693 42.0817 60.8073 42.4362 60.9687C42.7907 61.1301 43.1765 61.2111 43.566 61.2057C43.8696 61.2057 44.1711 61.1551 44.4581 61.0561C44.8574 60.9399 45.2241 60.7323 45.5293 60.4496C47.5433 58.3685 48.9668 55.3202 49.7602 51.3891C50.3958 48.2393 50.5941 44.5213 50.3188 40.9202C50.2849 40.4764 50.2504 40.0638 50.2179 39.6786L50.2179 39.6784C50.0315 37.4611 49.9289 36.2396 50.4913 35.331C51.0996 34.3484 52.6453 33.4073 55.4703 31.9078C57.7493 30.6981 59.4437 28.1083 60.1188 24.8025C60.7686 21.6209 60.4126 18.1747 59.1419 15.3475C58.057 12.7504 55.8496 10.6641 54.042 9.88583C51.3295 8.5479 48.0408 8.39109 44.2667 9.42003C41.5974 10.1476 40.1976 11.0157 38.7159 11.9346C37.5653 12.683 36.3517 13.3299 35.089 13.868C35.0408 13.8885 34.9938 13.9116 34.9482 13.9372C34.5878 13.741 34.148 13.4873 33.6591 13.205C31.1972 11.7831 27.4765 9.63454 24.3186 9.21564C17.4468 8.30413 12.1954 11.3575 10.2695 17.3827C8.42392 23.1566 10.3588 29.6731 14.5824 31.9092ZM58.5114 24.4741C59.0939 21.622 58.7783 18.5405 57.6455 16.02C56.8066 13.9453 55.3027 12.3367 53.3163 11.3572C50.9735 10.2019 48.0741 10.0827 44.6981 11.0028C42.2598 11.6677 41.0177 12.4375 39.5801 13.329C38.7123 13.8853 37.815 14.3941 36.892 14.8531C39.2924 15.8525 41.2572 16.1634 42.9868 15.8259C43.0926 15.8052 43.2013 15.8056 43.3069 15.827C43.4125 15.8484 43.5128 15.8903 43.6022 15.9505C43.6916 16.0107 43.7682 16.0878 43.8277 16.1776C43.8873 16.2674 43.9285 16.368 43.9492 16.4738C43.9698 16.5795 43.9695 16.6883 43.9481 16.7938C43.9267 16.8994 43.8847 16.9998 43.8246 17.0891C43.7644 17.1785 43.6872 17.2551 43.5974 17.3147C43.5076 17.3742 43.407 17.4155 43.3013 17.4361C40.0673 18.0671 36.7909 16.6967 34.6079 15.6112C34.1558 15.3863 33.5453 15.0338 32.8386 14.6256L32.8367 14.6245C30.4865 13.2675 26.9368 11.2181 24.1023 10.842C15.4264 9.69142 12.6316 15.3821 11.8329 17.8816C11.0748 20.3006 11.0188 22.885 11.6713 25.3346C12.3339 27.7336 13.6407 29.5534 15.3505 30.4586C21.7171 33.8288 21.9063 34.6213 21.4698 39.8101L21.4656 39.86C21.4346 40.2287 21.4016 40.6226 21.3693 41.0448C20.649 50.4655 23.1351 56.6558 25.7019 59.3082C25.8329 59.3953 25.9767 59.4616 26.128 59.5045C26.3718 59.5955 26.6408 59.5919 26.882 59.4945C27.1233 59.3971 27.3194 59.213 27.4317 58.9783C27.5155 58.7841 27.539 58.5691 27.4989 58.3614C27.4948 58.3392 27.4915 58.3169 27.4891 58.2945C27.2607 55.6226 27.2652 52.9359 27.5027 50.2648C28.0235 44.2687 29.5996 39.6316 32.1871 36.482C32.5411 36.0578 32.9844 35.7171 33.4854 35.4843C33.9864 35.2516 34.5327 35.1324 35.0852 35.1354C35.6376 35.1384 36.1825 35.2635 36.681 35.5018C37.1794 35.7401 37.619 36.0856 37.9683 36.5136C40.5048 39.6793 42.0489 44.3157 42.5556 50.2939C42.787 52.9554 42.7895 55.632 42.5631 58.294C42.5608 58.3165 42.5575 58.3391 42.5533 58.3614C42.5132 58.5691 42.5366 58.7841 42.6206 58.9784C42.7329 59.2131 42.9289 59.3972 43.1702 59.4946C43.4115 59.5919 43.6804 59.5955 43.9242 59.5045C44.0777 59.4622 44.2231 59.3945 44.3543 59.3042C46.9172 56.6559 49.4033 50.4648 48.6829 41.0448C48.6497 40.6111 48.6159 40.2073 48.5842 39.83L48.583 39.8155C48.1473 34.6293 48.3364 33.8369 54.701 30.4586C56.5456 29.4795 57.9346 27.2983 58.5114 24.4741Z" fill="#34C5A1"></path><path d="M31.7188 25.5664H38.5547V27.207H31.7188V25.5664Z" fill="#4670CE"></path></svg>