<?xml version="1.0" encoding="UTF-8"?>
<svg width="100pt" height="100pt" version="1.1" viewBox="0 0 100 100" xmlns="http://www.w3.org/2000/svg">
 <g>
  <path d="m47.043 27.098c-2.9727-1.6133-6.4922-1.7969-10.453-0.54297-2.9336 0.92969-4.8672 2.6875-5.7539 5.2305-2.1875 6.2734 3.1797 15.367 4.6016 17.617-0.53516 4.3672-2.0703 19.879 2.4961 23.992 0.75 0.67578 1.4492 0.87891 2.0234 0.87891 0.27734 0 0.52344-0.046876 0.73047-0.11328 2.0391-0.63672 2.7148-3.5312 3.7422-7.9062 1.0703-4.5664 2.5391-10.82 5.543-10.82l0.10938-0.003906c2.9492 0 4.4141 6.2539 5.4844 10.82 1.0273 4.3789 1.707 7.2695 3.7422 7.9062 0.64453 0.20312 1.6445 0.23438 2.7539-0.76953 4.5703-4.1133 3.0352-19.625 2.4961-23.992 1.4258-2.25 6.7891-11.34 4.6016-17.617-0.88672-2.543-2.8203-4.3008-5.7539-5.2305-6.7969-2.1523-11.039 0.34766-13.41 2.8477-0.80078-0.85547-1.7773-1.6602-2.9531-2.2969zm6.3008 8.0664c-0.03125-0.11328-0.43359-1.5234-1.4414-3.2227 2.5391-3.0156 6.0898-3.8281 10.566-2.4141 1.9688 0.62109 3.1914 1.6953 3.7461 3.2773 1.6172 4.6289-2.75 12.648-4.5703 15.348l-0.33203 0.49219 0.074219 0.58594c0.97656 7.4648 1.207 18.922-1.2383 21.66-0.52344-1-1.1016-3.4727-1.543-5.3516-1.3828-5.8945-3.1016-13.23-8.582-13.23l-0.10938 0.003906c-5.4258 0-7.1445 7.3359-8.5273 13.23-0.44141 1.8789-1.0195 4.3516-1.543 5.3516-2.4453-2.7383-2.2148-14.195-1.2383-21.66l0.078125-0.58594-0.33203-0.49219c-1.8203-2.6953-6.1875-10.703-4.5703-15.344 0.55078-1.582 1.7773-2.6562 3.7461-3.2773 1.4141-0.44922 2.7383-0.67188 3.9727-0.67188 1.4805 0 2.8281 0.32422 4.0234 0.96875 3.5664 1.9219 4.793 6.1289 4.8047 6.168z"/>
  <path d="m50 84.793v3.125c19.695 0 35.926-15.094 37.742-34.32l5.4219 5.4219 2.2109-2.2109-9.0195-9.0234-9.0195 9.0195 2.2109 2.2109 5.0117-5.0117c-2 17.309-16.73 30.789-34.559 30.789z"/>
  <path d="m22.664 43.293-2.2109-2.2109-5.0273 5.0273c1.9414-17.359 16.699-30.902 34.57-30.902v-3.125c-19.727 0-35.977 15.145-37.75 34.418l-5.418-5.418-2.2031 2.2109 9.0195 9.0234z"/>
 </g>
</svg>
