<?xml version="1.0" encoding="iso-8859-1"?>
<!-- Generator: Adobe Illustrator 19.0.0, SVG Export Plug-In . SVG Version: 6.00 Build 0)  -->
<svg xmlns="http://www.w3.org/2000/svg" xmlns:xlink="http://www.w3.org/1999/xlink" version="1.1" id="Capa_1" x="0px" y="0px" viewBox="0 0 511.999 511.999" style="enable-background:new 0 0 511.999 511.999;" xml:space="preserve" width="512px" height="512px">
<g>
	<g>
		<path d="M480,432.586l-73.984-65.274V238.414c17.518,6.203,37.329,1.077,49.566-13.607c16.046-19.26,13.184-47.589-5.722-63.34    l-43.845-36.781V45.002c0-8.284-6.716-15-15-15h-60c-8.284,0-15,6.716-15,15v4.186l-46.188-38.746    c-16.695-13.927-40.929-13.927-57.657,0.026L32.21,161.435c-19.106,15.918-21.685,44.259-5.763,63.369    c12.345,14.825,32.304,19.675,49.569,13.594v198.604c0,8.284,6.716,15,15,15h274.985l55.889,49.292    c0.106,0.094,0.214,0.186,0.322,0.276c19.012,15.835,47.384,13.42,63.37-5.762C501.416,476.803,498.897,448.493,480,432.586z     M346.016,60.002h30v39.519l-30-25.167V60.002z M70.631,207.508c-6.368,5.294-15.848,4.442-21.133-1.904    c-5.244-6.293-4.546-15.738,1.954-21.153L231.42,33.478c5.56-4.638,13.631-4.639,19.159-0.026l180.039,151.032    c6.369,5.305,7.223,14.75,1.916,21.119c-5.297,6.356-14.749,7.224-21.078,1.952L250.66,72.566    c-2.789-2.341-6.217-3.512-9.645-3.512c-3.428,0-6.855,1.171-9.645,3.512L70.631,207.508z M241.016,181.002    c-57.897,0-105,47.103-105,105c0,58.448,47.103,106,105,106c26.891,0,51.448-10.262,70.044-27.105l16.168,13.474l-9.625,11.229    c-5.338,6.227-4.685,15.586,1.467,21.011l12.916,11.391h-225.97V216.973l135-113.333l135,113.333v124.154    c-6.39-4.018-14.584-2.66-19.367,2.919l-9.896,11.545l-16.518-13.765c9.996-16.223,15.781-35.353,15.781-55.824    C346.016,228.105,298.913,181.002,241.016,181.002z M316.016,286.002c0,41.906-33.645,76-75,76c-41.355,0-75-34.094-75-76    c0-41.355,33.645-75,75-75C282.371,211.002,316.016,244.647,316.016,286.002z M462.534,476.603    c-5.183,6.219-14.511,7.302-20.986,2.027l-91.542-80.736l19.518-22.771l90.772,80.085c0.106,0.093,0.214,0.185,0.322,0.276    C466.969,460.775,467.828,470.249,462.534,476.603z" fill="#FFFFFF"/>
	</g>
</g>
<g>
</g>
<g>
</g>
<g>
</g>
<g>
</g>
<g>
</g>
<g>
</g>
<g>
</g>
<g>
</g>
<g>
</g>
<g>
</g>
<g>
</g>
<g>
</g>
<g>
</g>
<g>
</g>
<g>
</g>
</svg>
